<svg xmlns="http://www.w3.org/2000/svg" width="16" height="18" fill="none" viewBox="0 0 16 18">
    <path fill="#3EE8CC" d="M7.664 0c-1.96 0-4.745.664-6.222 1.04A1.92 1.92 0 0 0 0 2.896v4.13c0 3.16 1.875 5.838 3.69 7.728 1.815 1.89 3.635 3.031 3.635 3.031l.344.215.34-.22s1.816-1.166 3.63-3.068c1.812-1.902 3.69-4.575 3.69-7.687V2.896c0-.871-.597-1.638-1.44-1.856h-.003C12.41.664 9.623 0 7.664 0zm0 1.277c1.653 0 4.462.633 5.905 1a.632.632 0 0 1 .482.62v4.128c0 2.588-1.636 5.024-3.336 6.806-1.528 1.604-2.762 2.393-3.053 2.587-.292-.19-1.522-.957-3.05-2.547-1.697-1.768-3.335-4.2-3.335-6.846V2.896c0-.298.191-.545.48-.618 1.442-.368 4.254-1 5.907-1zm4.658 2.902L6.866 9.635 3.964 6.733l-.903.904 3.805 3.804 6.359-6.36-.903-.902z"/>
</svg>
