<svg width="24" height="24" viewBox="0 0 24 24" fill="none" xmlns="http://www.w3.org/2000/svg">
<path d="M4 0C1.80671 0 0 1.80671 0 4V21.3333C0 22.8067 1.19333 24 2.66667 24H21.3333C22.8067 24 24 22.8067 24 21.3333V8C24 6.52667 22.8067 5.33333 21.3333 5.33333H6.66667H4C3.24663 5.33333 2.66667 4.75337 2.66667 4C2.66667 3.24663 3.24663 2.66667 4 2.66667H22.6667V0H4ZM20 13.3333C20.736 13.3333 21.3333 13.9307 21.3333 14.6667C21.3333 15.4027 20.736 16 20 16C19.264 16 18.6667 15.4027 18.6667 14.6667C18.6667 13.9307 19.264 13.3333 20 13.3333Z" fill="white"/>
</svg>
