<svg xmlns="http://www.w3.org/2000/svg" width="18" height="16" fill="none" viewBox="0 0 18 16">
    <path fill="#31E6C9" d="M1.714 0C1.246 0 .8.165.482.482.165.795 0 1.242 0 1.714v1.143a.57.57 0 0 0 .571.572h1.715v8.428c0 .942.696 1.857 1.714 1.857h3.728A5.148 5.148 0 0 0 12 16a5.15 5.15 0 0 0 5.143-5.143c0-2.232-1.438-4.116-3.429-4.83V1.714c0-.473-.165-.92-.482-1.232-.299-.299-.714-.46-1.156-.473A.393.393 0 0 0 12 0H1.714zm0 1.143h8.84c-.103.24-.268.45-.268.714v.429H1.143v-.572c0-.218.062-.339.147-.424.085-.085.21-.147.424-.147zm10.286 0c.214 0 .34.062.424.147.085.085.147.206.147.424v4.058c-.191-.022-.375-.058-.571-.058-1.21 0-2.313.438-3.188 1.143h-4.24V8h3.191a5.34 5.34 0 0 0-.593 1.143H4.57v1.143h2.344c-.022.192-.058.375-.058.571 0 .603.12 1.174.313 1.714H4c-.353 0-.571-.276-.571-.714V3.43h7.428a.57.57 0 0 0 .572-.572v-1c0-.437.218-.714.571-.714zM4.571 4.57v1.143h5.715V4.571H4.57zM12 6.857c2.214 0 4 1.786 4 4s-1.786 4-4 4-4-1.786-4-4 1.786-4 4-4zM11.429 8v2.286H9.143v1.143h2.286v2.285h1.142V11.43h2.286v-1.143h-2.286V8H11.43z"/>
</svg>
