<?xml version="1.0" encoding="UTF-8" standalone="no"?>
<!-- Created with Inkscape (http://www.inkscape.org/) -->

<svg
   xmlns:dc="http://purl.org/dc/elements/1.1/"
   xmlns:cc="http://creativecommons.org/ns#"
   xmlns:rdf="http://www.w3.org/1999/02/22-rdf-syntax-ns#"
   xmlns:svg="http://www.w3.org/2000/svg"
   xmlns="http://www.w3.org/2000/svg"
   xmlns:sodipodi="http://sodipodi.sourceforge.net/DTD/sodipodi-0.dtd"
   xmlns:inkscape="http://www.inkscape.org/namespaces/inkscape"
   width="45.370708mm"
   height="45.370708mm"
   viewBox="0 0 45.370708 45.370708"
   version="1.1"
   id="svg4021"
   inkscape:version="0.92.4 (5da689c313, 2019-01-14)"
   sodipodi:docname="iov-logo.svg">
  <defs
     id="defs4015">
    <mask
       id="b"
       width="38"
       height="39"
       x="0"
       y="0"
       maskUnits="userSpaceOnUse">
      <path
         style="fill:#ffffff"
         inkscape:connector-curvature="0"
         d="m 19.16,0.7 c 10.166,0 18.436,8.42 18.436,18.772 0,10.351 -8.27,18.773 -18.436,18.773 C 8.993,38.245 0.723,29.824 0.723,19.472 0.723,9.121 8.993,0.7 19.16,0.7 Z"
         id="path3817" />
    </mask>
    <mask
       id="c"
       width="10"
       height="9"
       x="14"
       y="6"
       maskUnits="userSpaceOnUse">
      <path
         style="fill:#ffffff"
         inkscape:connector-curvature="0"
         d="m 16.412,14.034 c -1.04,-0.798 -1.677,-2.056 -1.595,-3.437 0.133,-2.252 2.123,-3.972 4.444,-3.842 2.32,0.13 4.094,2.06 3.96,4.31 a 4.026,4.026 0 0 1 -1.44,2.844 l -2.71,-3.96 z"
         id="path3822" />
    </mask>
    <mask
       id="d"
       width="9"
       height="10"
       x="7"
       y="20"
       maskUnits="userSpaceOnUse">
      <path
         style="fill:#ffffff"
         inkscape:connector-curvature="0"
         d="m 15.81,25.95 c -0.157,1.422 -0.927,2.743 -2.183,3.473 -2.046,1.191 -4.6,0.364 -5.701,-1.847 -1.103,-2.21 -0.337,-4.968 1.71,-6.159 a 3.916,3.916 0 0 1 3.251,-0.334 l -2.057,4.803 z"
         id="path3829" />
    </mask>
    <mask
       id="e"
       width="9"
       height="10"
       x="22"
       y="20"
       maskUnits="userSpaceOnUse">
      <path
         style="fill:#ffffff"
         inkscape:connector-curvature="0"
         d="m 22.202,25.997 4.977,-0.148 -2.126,-4.768 a 3.913,3.913 0 0 1 3.256,0.28 c 2.064,1.155 2.87,3.9 1.8,6.129 -1.07,2.23 -3.611,3.1 -5.675,1.944 -1.266,-0.71 -2.056,-2.018 -2.232,-3.437 z"
         id="path3836" />
    </mask>
    <mask
       id="a"
       width="39"
       height="39"
       x="0"
       y="0"
       maskUnits="userSpaceOnUse">
      <path
         style="fill:#ffffff"
         inkscape:connector-curvature="0"
         d="M 19.453,38.905 C 8.709,38.905 0,30.195 0,19.452 0,8.71 8.71,0 19.453,0 c 10.743,0 19.452,8.71 19.452,19.453 0,10.743 -8.71,19.452 -19.453,19.452 z"
         id="path3810" />
    </mask>
  </defs>
  <sodipodi:namedview
     id="base"
     pagecolor="#ffffff"
     bordercolor="#666666"
     borderopacity="1.0"
     inkscape:pageopacity="0.0"
     inkscape:pageshadow="2"
     inkscape:zoom="2.8"
     inkscape:cx="142.48411"
     inkscape:cy="89.85826"
     inkscape:document-units="mm"
     inkscape:current-layer="layer1"
     showgrid="false"
     inkscape:window-width="1920"
     inkscape:window-height="950"
     inkscape:window-x="0"
     inkscape:window-y="27"
     inkscape:window-maximized="1" />
  <metadata
     id="metadata4018">
    <rdf:RDF>
      <cc:Work
         rdf:about="">
        <dc:format>image/svg+xml</dc:format>
        <dc:type
           rdf:resource="http://purl.org/dc/dcmitype/StillImage" />
        <dc:title></dc:title>
      </cc:Work>
    </rdf:RDF>
  </metadata>
  <g
     inkscape:label="Capa 1"
     inkscape:groupmode="layer"
     id="layer1"
     transform="translate(-98.267026,-82.30274)">
    <g
       transform="matrix(1.1660424,0,0,1.1660424,98.269358,82.305072)"
       mask="url(#a)"
       id="g3815">
      <path
         style="clip-rule:evenodd;fill:#f6f7fb;fill-rule:evenodd"
         inkscape:connector-curvature="0"
         d="m -0.002,38.908 h 38.91 V -0.002 H -0.001 v 38.91 z"
         id="path3813" />
    </g>
    <g
       transform="matrix(1.1660424,0,0,1.1660424,98.269358,82.305072)"
       mask="url(#b)"
       id="g3843">
      <path
         style="fill:#ffffff"
         inkscape:connector-curvature="0"
         d="m 19.16,0.7 c 10.166,0 18.436,8.42 18.436,18.772 0,10.351 -8.27,18.773 -18.436,18.773 C 8.993,38.245 0.723,29.824 0.723,19.472 0.723,9.121 8.993,0.7 19.16,0.7 Z"
         id="path3820" />
      <mask
         id="mask3892"
         width="10"
         height="9"
         x="14"
         y="6"
         maskUnits="userSpaceOnUse">
        <path
           style="fill:#ffffff"
           inkscape:connector-curvature="0"
           d="m 16.412,14.034 c -1.04,-0.798 -1.677,-2.056 -1.595,-3.437 0.133,-2.252 2.123,-3.972 4.444,-3.842 2.32,0.13 4.094,2.06 3.96,4.31 a 4.026,4.026 0 0 1 -1.44,2.844 l -2.71,-3.96 z"
           id="path3890" />
      </mask>
      <g
         mask="url(#c)"
         id="g3827">
        <path
           style="clip-rule:evenodd;fill:#5dc0b7;fill-rule:evenodd"
           inkscape:connector-curvature="0"
           d="m 14.808,14.034 h 8.421 V 6.747 h -8.421 z"
           id="path3825" />
      </g>
      <mask
         id="mask3898"
         width="9"
         height="10"
         x="7"
         y="20"
         maskUnits="userSpaceOnUse">
        <path
           style="fill:#ffffff"
           inkscape:connector-curvature="0"
           d="m 15.81,25.95 c -0.157,1.422 -0.927,2.743 -2.183,3.473 -2.046,1.191 -4.6,0.364 -5.701,-1.847 -1.103,-2.21 -0.337,-4.968 1.71,-6.159 a 3.916,3.916 0 0 1 3.251,-0.334 l -2.057,4.803 z"
           id="path3896" />
      </mask>
      <g
         mask="url(#d)"
         id="g3834">
        <path
           style="clip-rule:evenodd;fill:#5dc0b7;fill-rule:evenodd"
           inkscape:connector-curvature="0"
           d="m 7.421,29.97 h 8.39 V 20.874 H 7.42 v 9.096 z"
           id="path3832" />
      </g>
      <mask
         id="mask3904"
         width="9"
         height="10"
         x="22"
         y="20"
         maskUnits="userSpaceOnUse">
        <path
           style="fill:#ffffff"
           inkscape:connector-curvature="0"
           d="m 22.202,25.997 4.977,-0.148 -2.126,-4.768 a 3.913,3.913 0 0 1 3.256,0.28 c 2.064,1.155 2.87,3.9 1.8,6.129 -1.07,2.23 -3.611,3.1 -5.675,1.944 -1.266,-0.71 -2.056,-2.018 -2.232,-3.437 z"
           id="path3902" />
      </mask>
      <g
         mask="url(#e)"
         id="g3841">
        <path
           style="clip-rule:evenodd;fill:#5dc0b7;fill-rule:evenodd"
           inkscape:connector-curvature="0"
           d="m 22.202,29.945 h 8.38 v -9.096 h -8.38 z"
           id="path3839" />
      </g>
    </g>
  </g>
</svg>
