<svg width="16" height="17" viewBox="0 0 16 17" fill="none" xmlns="http://www.w3.org/2000/svg">
<path d="M13.4558 0H6.08112V9.87716H15.9786V2.56983C15.9826 1.18236 14.8462 0 13.4558 0ZM3.81632 0H2.57914C1.18882 0 0 1.13008 0 2.57385V3.8085H3.81632V0ZM0 6.12094H3.81632V9.92944H0V6.12094ZM12.1663 15.9981H13.4035C14.7938 15.9981 15.9826 14.868 15.9826 13.4243V12.1936H12.1663V15.9981ZM6.08112 12.1936H9.89744V16.0021H6.08112V12.1936ZM0 12.1936V13.4283C0 14.8157 1.1324 16.0021 2.57914 16.0021H3.81632V12.1936H0Z" fill="#31E6C9"/>
</svg>
