<svg width="106" height="51" viewBox="0 0 106 51" fill="none" xmlns="http://www.w3.org/2000/svg">
<ellipse cx="24.926" cy="25.1684" rx="24.4433" ry="24.2013" fill="#FBFBFB"/>
<path fill-rule="evenodd" clip-rule="evenodd" d="M58.124 33.6175H60.7916V16.4977H58.124V33.6175Z" fill="#1E1F1E"/>
<path fill-rule="evenodd" clip-rule="evenodd" d="M106 16.4977H103.329C103.329 16.4977 98.7364 28.6062 98.4371 29.3229C98.1376 30.0394 97.8178 29.2701 97.8178 29.2701L92.9466 16.4977H90.2753L96.4576 32.7069C96.4576 32.7069 97.0365 33.6175 98.1376 33.6175C99.4242 33.6175 99.9172 32.4454 99.9172 32.4454L106 16.4977Z" fill="#1E1F1E"/>
<path d="M105.925 16.4318L99.8791 32.4176C99.8791 32.4176 99.3892 33.5924 98.1103 33.5924C97.0159 33.5924 96.4405 32.6797 96.4405 32.6797L90.2957 16.4318H92.9508L97.7925 29.2347C97.7925 29.2347 98.1103 30.0058 98.408 29.2875C98.7055 28.5691 103.27 16.4318 103.27 16.4318H105.925Z" fill="#1E1F1E"/>
<path d="M76.476 34.0339C71.8872 34.0339 68.1542 30.1038 68.1542 25.2729C68.1542 20.442 71.8872 16.5118 76.476 16.5118C81.0648 16.5118 84.7979 20.442 84.7979 25.2729C84.7979 30.1038 81.0648 34.0339 76.476 34.0339ZM76.476 18.8884C73.1939 18.8884 70.5238 21.7525 70.5238 25.2729C70.5238 28.7932 73.1939 31.6573 76.476 31.6573C79.758 31.6573 82.4281 28.7932 82.4281 25.2729C82.4281 21.7525 79.758 18.8884 76.476 18.8884Z" fill="#1E1F1E"/>
<path d="M24.3691 50.3056C11.1911 49.9359 0.520682 39.3363 0 26.1664L0 24.1491C0.530028 10.7428 11.5774 0 25.0811 0C38.9217 0 50.182 11.2858 50.182 25.1578C50.182 38.7911 39.3058 49.9265 25.7931 50.3056H24.3691ZM25.0811 1.4887C12.0593 1.4887 1.46526 12.1066 1.46526 25.1578C1.46526 38.2093 12.0593 48.827 25.0811 48.827C38.1029 48.827 48.6966 38.2093 48.6966 25.1578C48.6966 12.1066 38.1029 1.4887 25.0811 1.4887Z" fill="#D4D4D1"/>
<path d="M21.7342 18.2773C20.3874 17.209 19.5613 15.5239 19.6673 13.6739C19.8402 10.6586 22.4175 8.35494 25.4238 8.52828C28.4303 8.70178 30.7273 11.2865 30.5543 14.3018C30.4667 15.8325 29.7576 17.1777 28.6889 18.1106L25.1785 12.8074L21.7342 18.2773Z" fill="#5BB8A8"/>
<path d="M20.7555 32.4392C20.5527 34.1436 19.5488 35.7268 17.913 36.6024C15.2468 38.0296 11.9214 37.0384 10.4855 34.3885C9.04964 31.7385 10.0469 28.4334 12.7131 27.0063C14.0666 26.2818 15.589 26.183 16.9488 26.6056L14.2693 32.3631L20.7555 32.4392Z" fill="#5BB8A8"/>
<path d="M29.359 32.5306L35.8343 32.3532L33.068 26.6384C34.4191 26.1945 35.941 26.2694 37.3039 26.9728C39.9886 28.3581 41.0364 31.6476 39.6445 34.3194C38.2525 36.9913 34.9478 38.0344 32.2629 36.649C30.6157 35.799 29.5885 34.2315 29.359 32.5306Z" fill="#5BB8A8"/>
</svg>
