<svg width="42" height="42" viewBox="0 0 42 42" fill="none" xmlns="http://www.w3.org/2000/svg">
<circle cx="21" cy="21" r="21" fill="white"/>
<path d="M20.3958 42C9.36642 41.6913 0.435787 32.8418 0 21.8463L0 20.162C0.443609 8.96917 9.68974 0 20.9917 0C32.5757 0 42 9.42248 42 21.0042C42 32.3866 32.8971 41.6835 21.5876 42H20.3958ZM20.9917 1.24291C10.0931 1.24291 1.22636 10.1078 1.22636 21.0042C1.22636 31.9008 10.0931 40.7656 20.9917 40.7656C31.8904 40.7656 40.7568 31.9008 40.7568 21.0042C40.7568 10.1078 31.8904 1.24291 20.9917 1.24291Z" fill="#D4D4D1"/>
<path d="M18.2565 15.3534C17.1252 14.456 16.4313 13.0405 16.5204 11.4865C16.6655 8.95365 18.8305 7.01854 21.3558 7.16414C23.8813 7.30988 25.8107 9.48107 25.6654 12.0139C25.5919 13.2996 24.9962 14.4296 24.0985 15.2133L21.1497 10.7586L18.2565 15.3534Z" fill="#57C2B9"/>
<path d="M17.4343 27.2491C17.2639 28.6808 16.4206 30.0107 15.0466 30.7462C12.8069 31.945 10.0136 31.1124 8.80746 28.8865C7.60132 26.6605 8.439 23.8842 10.6786 22.6854C11.8156 22.0769 13.0944 21.9939 14.2366 22.3489L11.9858 27.1852L17.4343 27.2491Z" fill="#57C2B9"/>
<path d="M24.6621 27.3254L30.1014 27.1765L27.7776 22.376C28.9126 22.0031 30.191 22.0661 31.3358 22.6569C33.591 23.8206 34.4712 26.5837 33.3019 28.828C32.1327 31.0725 29.3567 31.9486 27.1014 30.7849C25.7178 30.071 24.8549 28.7542 24.6621 27.3254Z" fill="#57C2B9"/>
</svg>
