<svg width="42" height="42" viewBox="0 0 42 42" fill="none" xmlns="http://www.w3.org/2000/svg">
<circle opacity="0.1" cx="21" cy="21" r="21" fill="#586BB2"/>
<path d="M29.2342 27.1776C25.6601 23.8462 25.4645 18.2288 28.7958 14.6547C29.2838 14.1321 29.254 13.3122 28.7314 12.8268C28.6992 12.797 28.6645 12.7673 28.6299 12.7401C28.6001 12.7079 28.5704 12.6757 28.5382 12.6435C28.0156 12.1555 27.1958 12.1853 26.7103 12.7079C23.379 16.282 17.7615 16.4776 14.1874 13.1463C13.6648 12.6583 12.8449 12.6881 12.3595 13.2107C12.3521 13.2206 12.3446 13.228 12.3372 13.2379C12.3298 13.2454 12.3199 13.2528 12.3124 13.2627C11.8245 13.7853 11.8542 14.6051 12.3768 15.0906C15.9509 18.422 16.1466 24.0394 12.8152 27.6135C12.3273 28.1361 12.357 28.956 12.8796 29.4414C12.9118 29.4711 12.9465 29.5009 12.9812 29.5281C13.0109 29.5603 13.0406 29.5925 13.0728 29.6247C13.5954 30.1127 14.4153 30.0829 14.9007 29.5603C18.2321 25.9862 23.8496 25.7906 27.4236 29.1219C27.9463 29.6099 28.7661 29.5801 29.2516 29.0575C29.259 29.0476 29.2664 29.0402 29.2738 29.0303C29.2813 29.0228 29.2912 29.0154 29.2986 29.0055C29.7841 28.4854 29.7568 27.6655 29.2342 27.1776ZM20.7461 24.6413C20.0327 23.123 18.8414 21.8697 17.3627 21.0821C18.8637 20.339 20.0947 19.1254 20.8575 17.6318C21.5709 19.1501 22.7622 20.4034 24.2409 21.1911C22.7399 21.9341 21.5089 23.1478 20.7461 24.6413Z" fill="url(#paint0_linear)"/>
<defs>
<linearGradient id="paint0_linear" x1="20.273" y1="33.0122" x2="21.3064" y2="10.1719" gradientUnits="userSpaceOnUse">
<stop offset="0.2057" stop-color="#B191C3"/>
<stop offset="1" stop-color="#3C5FAC"/>
</linearGradient>
</defs>
</svg>
