<svg xmlns="http://www.w3.org/2000/svg" width="30" height="30" fill="none" viewBox="0 0 30 30">
    <path fill="#6F749A" d="M15 0c-3.435 0-6.423 2.388-7.251 5.669-2.021.3-3.625 1.912-3.94 4.006A5.643 5.643 0 0 0 0 15a5.636 5.636 0 0 0 5.625 5.625h18.75A5.636 5.636 0 0 0 30 15c0-1.685-.747-3.26-2.036-4.321.11-.432.161-.872.161-1.304 0-3.413-3.018-6.196-6.577-5.537A7.497 7.497 0 0 0 15 0zm0 1.875a5.63 5.63 0 0 1 5.186 3.428l.33.805.82-.278c.424-.14.805-.205 1.164-.205a3.757 3.757 0 0 1 3.75 3.75c0 .44-.088.886-.264 1.333l-.263.718.644.41A3.732 3.732 0 0 1 28.125 15a3.757 3.757 0 0 1-3.75 3.75H5.625A3.757 3.757 0 0 1 1.875 15a3.763 3.763 0 0 1 3.003-3.677l.769-.22-.022-.79c0-1.553 1.26-2.813 2.717-2.82l.19.022h.814l.117-.813C9.85 3.948 12.23 1.875 15 1.875zm-2.813 7.5a.935.935 0 0 0-.937.938c0 .52.418.937.938.937s.937-.418.937-.938a.935.935 0 0 0-.938-.937zm5.626 0a.935.935 0 0 0-.938.938c0 .52.418.937.938.937s.937-.418.937-.938a.935.935 0 0 0-.938-.937zM15 13.125c-3.289 0-5.361 2.168-5.361 2.168a.912.912 0 0 0-.279.93.926.926 0 0 0 .704.681.944.944 0 0 0 .922-.322S12.524 15 15 15s4.014 1.582 4.014 1.582a.944.944 0 0 0 .922.322.926.926 0 0 0 .704-.68.912.912 0 0 0-.279-.931S18.29 13.125 15 13.125z"/>
</svg>
