<?xml version="1.0" encoding="UTF-8" standalone="no"?>
<svg
   xmlns:dc="http://purl.org/dc/elements/1.1/"
   xmlns:cc="http://creativecommons.org/ns#"
   xmlns:rdf="http://www.w3.org/1999/02/22-rdf-syntax-ns#"
   xmlns:svg="http://www.w3.org/2000/svg"
   xmlns="http://www.w3.org/2000/svg"
   xmlns:sodipodi="http://sodipodi.sourceforge.net/DTD/sodipodi-0.dtd"
   xmlns:inkscape="http://www.inkscape.org/namespaces/inkscape"
   width="30"
   height="20.625"
   viewBox="0 0 30 20.625"
   version="1.1"
   id="svg4"
   sodipodi:docname="error.svg"
   style="fill:none"
   inkscape:version="0.92.4 (5da689c313, 2019-01-14)">
  <metadata
     id="metadata10">
    <rdf:RDF>
      <cc:Work
         rdf:about="">
        <dc:format>image/svg+xml</dc:format>
        <dc:type
           rdf:resource="http://purl.org/dc/dcmitype/StillImage" />
        <dc:title></dc:title>
      </cc:Work>
    </rdf:RDF>
  </metadata>
  <defs
     id="defs8" />
  <sodipodi:namedview
     pagecolor="#ffffff"
     bordercolor="#666666"
     borderopacity="1"
     objecttolerance="10"
     gridtolerance="10"
     guidetolerance="10"
     inkscape:pageopacity="0"
     inkscape:pageshadow="2"
     inkscape:window-width="1920"
     inkscape:window-height="950"
     id="namedview6"
     showgrid="false"
     inkscape:zoom="16"
     inkscape:cx="-9.3999999"
     inkscape:cy="8.5849804"
     inkscape:window-x="0"
     inkscape:window-y="27"
     inkscape:window-maximized="1"
     inkscape:current-layer="svg4" />
  <path
     d="m 15.002119,-0.03072034 c -3.435,0 -6.4230004,2.38800004 -7.2510004,5.66900004 -2.021,0.3 -3.625,1.912 -3.94,4.006 A 5.643,5.643 0 0 0 0.00211864,14.96928 5.636,5.636 0 0 0 5.6271186,20.59428 H 24.377119 a 5.636,5.636 0 0 0 5.625,-5.625 c 0,-1.685 -0.747,-3.26 -2.036,-4.321 0.11,-0.432 0.161,-0.8720003 0.161,-1.3040003 0,-3.413 -3.018,-6.196 -6.577,-5.537 a 7.497,7.497 0 0 0 -6.548,-3.83800004 z m 0,1.87500004 a 5.63,5.63 0 0 1 5.186,3.428 l 0.33,0.805 0.82,-0.278 c 0.424,-0.14 0.805,-0.205 1.164,-0.205 a 3.757,3.757 0 0 1 3.75,3.75 c 0,0.44 -0.088,0.8860003 -0.264,1.3330003 l -0.263,0.718 0.644,0.41 a 3.732,3.732 0 0 1 1.758,3.164 3.757,3.757 0 0 1 -3.75,3.75 H 5.6271186 a 3.757,3.757 0 0 1 -3.75,-3.75 3.763,3.763 0 0 1 3.003,-3.677 l 0.769,-0.22 -0.022,-0.79 c 0,-1.5530003 1.26,-2.8130003 2.717,-2.8200003 l 0.19,0.022 h 0.814 l 0.117,-0.813 c 0.387,-2.754 2.7670004,-4.827 5.5370004,-4.827 z m -2.813,7.5 a 0.935,0.935 0 0 0 -0.937,0.9380003 c 0,0.52 0.418,0.937 0.938,0.937 0.52,0 0.937,-0.418 0.937,-0.938 a 0.935,0.935 0 0 0 -0.938,-0.9370003 z m 5.626,0 a 0.935,0.935 0 0 0 -0.938,0.9380003 c 0,0.52 0.418,0.937 0.938,0.937 0.52,0 0.937,-0.418 0.937,-0.938 a 0.935,0.935 0 0 0 -0.938,-0.9370003 z m -2.813,3.7500003 c -3.289,0 -5.3610004,2.168 -5.3610004,2.168 a 0.912,0.912 0 0 0 -0.279,0.93 0.926,0.926 0 0 0 0.7040004,0.681 0.944,0.944 0 0 0 0.922,-0.322 c 0,0 1.538,-1.582 4.014,-1.582 2.476,0 4.014,1.582 4.014,1.582 a 0.944,0.944 0 0 0 0.922,0.322 0.926,0.926 0 0 0 0.704,-0.68 0.912,0.912 0 0 0 -0.279,-0.931 c 0,0 -2.071,-2.168 -5.361,-2.168 z"
     id="path2"
     inkscape:connector-curvature="0"
     style="fill:#6f749a" />
</svg>
