<svg xmlns="http://www.w3.org/2000/svg" width="24" height="24" viewBox="0 0 24 24" fill="none">
  <path fill="#6f749a"
     d="m 11.999,1.7542366 c -0.87,0 -1.74,0.413 -2.234,1.239 L 0.349,18.729238 c -1.002,1.664 0.281,3.835 2.227,3.835 h 18.84 c 1.951,0 3.234,-2.171 2.239,-3.835 L 14.232,2.9932366 c -0.494,-0.826 -1.364,-1.239 -2.232,-1.239 z m 0,1.577 c 0.331,0 0.663,0.162 0.863,0.488 l 9.417,15.7300014 c 0.394,0.656 -0.044,1.413 -0.864,1.413 H 2.576 c -0.813,0 -1.251,-0.757 -0.857,-1.414 L 11.135,3.8182366 c 0.2,-0.325 0.532,-0.487 0.864,-0.487 z m -0.814,4.817 v 8.0100014 h 1.602 V 8.1482366 h -1.602 z m 0,9.6100014 v 1.603 h 1.602 v -1.602 h -1.602 z" />
</svg>
