<svg width="40" height="40" viewBox="0 0 40 40" fill="none" xmlns="http://www.w3.org/2000/svg">
<circle cx="20" cy="20" r="19.5" fill="white" stroke="#F3F3F3"/>
<path d="M27.6134 26.3679C24.2516 23.2344 24.0675 17.9505 27.201 14.5887C27.66 14.0971 27.632 13.326 27.1405 12.8694C27.1102 12.8414 27.0776 12.8134 27.0449 12.7878C27.017 12.7575 26.989 12.7272 26.9587 12.697C26.4672 12.238 25.696 12.266 25.2394 12.7575C22.1059 16.1194 16.822 16.3034 13.4602 13.1699C12.9686 12.7109 12.1975 12.7389 11.7409 13.2305C11.7339 13.2398 11.7269 13.2468 11.7199 13.2561C11.7129 13.2631 11.7036 13.2701 11.6966 13.2794C11.2376 13.771 11.2656 14.5421 11.7572 14.9987C15.119 18.1322 15.303 23.4161 12.1695 26.7779C11.7106 27.2695 11.7385 28.0406 12.2301 28.4973C12.2604 28.5252 12.293 28.5532 12.3256 28.5788C12.3536 28.6091 12.3815 28.6394 12.4118 28.6697C12.9034 29.1286 13.6746 29.1007 14.1312 28.6091C17.2647 25.2473 22.5485 25.0632 25.9104 28.1967C26.4019 28.6557 27.1731 28.6277 27.6297 28.1362C27.6367 28.1268 27.6437 28.1199 27.6507 28.1105C27.6577 28.1035 27.667 28.0966 27.674 28.0872C28.1306 27.5957 28.105 26.8245 27.6134 26.3679ZM19.6294 23.9822C18.9584 22.5541 17.8378 21.3753 16.4469 20.6344C17.8588 19.9355 19.0167 18.7939 19.7342 17.3891C20.4052 18.8172 21.5258 19.996 22.9166 20.7369C21.5048 21.4335 20.3469 22.5751 19.6294 23.9822Z" fill="#B9BDCC"/>
</svg>
