<?xml version="1.0" encoding="UTF-8"?>
<!-- Svg Vector Icons : http://www.onlinewebfonts.com/icon -->
<!DOCTYPE svg PUBLIC "-//W3C//DTD SVG 1.1//EN" "http://www.w3.org/Graphics/SVG/1.1/DTD/svg11.dtd">
<svg version="1.1" xmlns="http://www.w3.org/2000/svg" xmlns:xlink="http://www.w3.org/1999/xlink" x="0px" y="0px" viewBox="0 0 1000 1000" enable-background="new 0 0 1000 1000" xml:space="preserve">
<metadata> Svg Vector Icons : http://www.onlinewebfonts.com/icon </metadata>
<g><g><path d="M911,783.7l-3.3,4C799,918.1,654.2,990,500,990c-154.2,0-299-71.9-407.7-202.3l-3.3-4l0.8-5.1c21-137,92.6-247,201.5-309.9l7.7-4.5l6.2,6.5c51.4,54,120.6,83.7,194.8,83.7s143.4-29.7,194.8-83.7l6.2-6.5l7.7,4.5c108.9,62.9,180.5,172.9,201.5,309.9L911,783.7z M500,499.4c134.9,0,244.7-109.8,244.7-244.7S634.9,10,500,10S255.3,119.8,255.3,254.7S365.1,499.4,500,499.4z"/></g><g/><g/><g/><g/><g/><g/><g/><g/><g/><g/><g/><g/><g/><g/><g/></g>
</svg>