<svg xmlns="http://www.w3.org/2000/svg" width="16" height="16" fill="none" viewBox="0 0 16 16">
    <path fill="#fff" stroke="#31E6C9" d="M.5 8C.5 3.867 3.867.5 8 .5s7.5 3.367 7.5 7.5-3.367 7.5-7.5 7.5S.5 12.133.5 8z"/>
    <path fill="#31E6C9" d="M5 6.654c0-1.41 1.277-2.571 2.843-2.651.222-.01.454.004.686.035 1.46.224 2.515 1.397 2.47 2.696-.036 1.098-.864 1.914-1.828 2.285-.349.138-.56.25-.636.321-.081.076-.122.116-.122.375H7.121c0-.45.166-.875.474-1.16.307-.284.668-.427 1.05-.578l.006-.002c.616-.241 1.035-.643 1.055-1.277.025-.723-.6-1.41-1.394-1.53-1.11-.17-2.02.557-2.02 1.486H5zM7.12 12v-1.143h1.293V12H7.121z"/>
</svg>
