<svg width="40" height="40" viewBox="0 0 40 40" fill="none" xmlns="http://www.w3.org/2000/svg">
<circle cx="20" cy="20" r="19.5" fill="white" stroke="#F3F3F3"/>
<path d="M19.8438 10.9688C19.6445 10.9688 19.4609 11.0391 19.3125 11.1875L17.9062 12.5L16.3125 12.1875C15.8125 12.0859 15.5078 12.4141 15.4062 12.8125L15.0938 14.5938L13.4062 15.4062C13.0078 15.6055 12.8945 16.0078 13.0938 16.4062L13.9062 18L13.0938 19.5938C12.8945 19.9922 13.1055 20.3945 13.4062 20.5938L15.0938 21.4062L15.4062 23.1875C15.5078 23.5859 15.9141 23.9141 16.3125 23.8125L18.1875 23.5L19.5938 24.8125C19.8945 25.1133 20.3867 25.1133 20.6875 24.8125L22.0938 23.5L24 23.8125C24.3984 23.9141 24.8047 23.5859 24.9062 23.1875L25.1875 21.4062L26.9062 20.5938C27.3047 20.3945 27.3867 19.9922 27.1875 19.5938L26.0938 18L26.9062 16.4062C27.1055 16.0078 26.9922 15.6055 26.5938 15.4062L24.9062 14.5938L24.5938 12.8125C24.4922 12.4141 24.0859 12.0859 23.6875 12.1875L21.8125 12.5L20.4062 11.1875C20.2578 11.0391 20.043 10.9688 19.8438 10.9688ZM14.0938 22.0938L11 28.3125L14.5938 27.8125L16.4062 31L19 25.6875L18.8125 25.5L17.8125 24.5938L16.4062 24.8125C15.5078 24.9141 14.6055 24.3047 14.4062 23.4062L14.1875 22.0938H14.0938ZM25.9062 22.0938L25.5938 23.4062C25.3945 24.207 24.707 24.8125 23.9062 24.8125H23.6875L22.3125 24.5938L21.3125 25.5L21.0938 25.6875L23.6875 31L25.5 27.9062L29.0938 28.4062L25.9062 22.0938Z" fill="#B9BDCC"/>
</svg>
