<svg width="24" height="26" viewBox="0 0 24 26" fill="none" xmlns="http://www.w3.org/2000/svg">
<path d="M22.4349 0.697909L6.3739 0.660645L11.1065 5.54229C11.6655 6.06399 12.3735 6.39937 13.156 6.39937H17.1433C17.6278 6.32484 18.1122 6.66023 18.1867 7.18193C18.1867 7.25646 18.1867 7.33099 18.1867 7.40552V15.2311C18.1867 15.2311 5.81493 2.41208 4.88332 1.51773C3.95171 0.62338 2.34934 0.697909 2.34934 0.697909H0.00167621V23.5038C0.00167621 23.5038 -0.110117 25.2179 1.49226 25.2179H17.1433L12.299 20.0754C11.7773 19.6655 11.1438 19.4419 10.5103 19.4419H6.74655C5.70314 19.4419 5.81493 18.2495 5.81493 18.2495V11.0202L18.3358 24.0627C18.3358 24.0627 19.491 25.1807 20.6835 25.1807H24C24 25.1807 23.8509 3.56727 23.8509 2.18849C23.8509 0.809702 22.4349 0.697909 22.4349 0.697909Z" fill="#8CD1C5"/>
</svg>
