<svg width="72" height="72" viewBox="0 0 72 72" fill="none" xmlns="http://www.w3.org/2000/svg">
<path d="M50.0625 19.125C49.3166 19.125 48.6012 19.4213 48.0738 19.9488C47.5463 20.4762 47.25 21.1916 47.25 21.9375C47.25 22.6834 47.5463 23.3988 48.0738 23.9262C48.6012 24.4537 49.3166 24.75 50.0625 24.75C50.8084 24.75 51.5238 24.4537 52.0512 23.9262C52.5787 23.3988 52.875 22.6834 52.875 21.9375C52.875 21.1916 52.5787 20.4762 52.0512 19.9488C51.5238 19.4213 50.8084 19.125 50.0625 19.125Z" fill="#D6D6D6"/>
<path d="M45 40.5H27C25.7625 40.5 24.75 41.5125 24.75 42.75V45C24.75 46.2375 25.7625 47.25 27 47.25H45C46.2375 47.25 47.25 46.2375 47.25 45V42.75C47.25 41.5125 46.2375 40.5 45 40.5ZM45 45H27V42.75H45V45Z" fill="#D6D6D6"/>
<path d="M12.375 56.25H28.125V58.5H12.375V56.25Z" fill="#D6D6D6"/>
<path d="M12.375 51.75H23.625V54H12.375V51.75Z" fill="#D6D6D6"/>
<path d="M27 42.75H45V45H27V42.75Z" fill="#D6D6D6"/>
<path d="M64.125 33.75H59.625V19.125C59.625 16.8187 58.23 14.85 56.25 13.9725V12.375C56.25 10.5188 54.7313 9 52.875 9H19.125C17.2688 9 15.75 10.5188 15.75 12.375V13.9725C13.77 14.85 12.375 16.8187 12.375 19.125V33.75H7.875C7.25288 33.75 6.75 34.254 6.75 34.875V58.5C6.75 61.6016 9.27338 64.125 12.375 64.125H59.625C62.7266 64.125 65.25 61.6016 65.25 58.5V34.875C65.25 34.254 64.7471 33.75 64.125 33.75ZM18 12.375C18 11.7562 18.5063 11.25 19.125 11.25H52.875C53.4938 11.25 54 11.7562 54 12.375V13.5H18V12.375ZM14.625 19.125C14.625 17.2688 16.1438 15.75 18 15.75H54C55.8563 15.75 57.375 17.2688 57.375 19.125V33.75H14.625V19.125ZM63 58.5C63 60.3607 61.4857 61.875 59.625 61.875H12.375C10.5143 61.875 9 60.3607 9 58.5V36H63V58.5Z" fill="#D6D6D6"/>
</svg>
