<svg width="72" height="72" viewBox="0 0 72 72" fill="none" xmlns="http://www.w3.org/2000/svg">
<path d="M37.4546 19.5469C39.2276 16.6039 42.4451 14.625 46.125 14.625C51.7084 14.625 56.25 19.1666 56.25 24.75C56.25 27.6019 55.0609 30.177 53.1574 32.0186C53.487 32.7454 53.784 33.489 54.0349 34.2563C56.7607 31.9838 58.5 28.5671 58.5 24.75C58.5 17.9269 52.9481 12.375 46.125 12.375C41.2909 12.375 37.1059 15.1684 35.0707 19.2195C35.8785 19.2892 36.675 19.3927 37.4546 19.5469Z" fill="#D6D6D6"/>
<path d="M67.2863 22.1243C67.2817 22.1198 67.2773 22.1153 67.2728 22.1119C67.2547 21.9949 67.2401 21.8767 67.2188 21.7609C67.2233 21.7631 67.2266 21.7665 67.2311 21.7688C67.0601 20.8204 66.8059 19.9013 66.483 19.0148C66.4796 19.0136 66.4774 19.0114 66.474 19.0103C64.1171 12.5269 57.9128 7.875 50.625 7.875H47.25L45 7.93238C38.1623 8.38575 32.4405 12.9262 30.2355 19.125L30.2344 20.25H32.625V19.125C32.6261 19.125 32.6273 19.125 32.6284 19.125C34.8368 13.8454 40.0534 10.125 46.125 10.125C54.189 10.125 60.75 16.686 60.75 24.75C60.75 29.6235 58.3447 33.9367 54.6671 36.5962C54.9619 38.0194 55.1171 39.4931 55.1216 41.0029C60.3866 39.5392 64.6211 35.5871 66.474 30.4909C66.4774 30.4897 66.4796 30.4875 66.483 30.4864C66.8059 29.5999 67.059 28.6807 67.2311 27.7324C67.2266 27.7346 67.2233 27.738 67.2188 27.7403C67.2401 27.6244 67.2547 27.5063 67.2728 27.3893C67.2773 27.3848 67.2817 27.3802 67.2863 27.3769C67.4224 26.5196 67.5 25.6444 67.5 24.75C67.5 23.8556 67.4224 22.9804 67.2863 22.1243ZM57.5595 12.375H58.383C60.21 13.5236 61.7636 15.0604 62.9291 16.875H61.0391C60.1402 15.1807 58.9568 13.6665 57.5595 12.375ZM58.383 37.125H57.5595C58.9568 35.8335 60.1402 34.3193 61.0391 32.625H62.9291C61.7636 34.4396 60.21 35.9764 58.383 37.125ZM64.1216 30.375H62.0156C62.5207 28.9508 62.838 27.4444 62.9426 25.875H65.1926C65.0723 27.4579 64.7089 28.9721 64.1216 30.375ZM62.9426 23.625C62.838 22.0556 62.5207 20.5492 62.0156 19.125H64.1216C64.7089 20.5279 65.0723 22.0421 65.1926 23.625H62.9426Z" fill="#D6D6D6"/>
<path d="M27 57.375C18.315 57.375 11.25 50.31 11.25 41.625C11.25 34.7085 15.7376 28.8326 21.9488 26.721L20.1971 24.9694C13.6361 27.6593 9 34.1078 9 41.625C9 51.5498 17.0753 59.625 27 59.625C34.5173 59.625 40.9657 54.9889 43.6556 48.4279L41.904 46.6763C39.7924 52.8874 33.9165 57.375 27 57.375Z" fill="#D6D6D6"/>
<path d="M42.1527 37.3793L44.9258 40.1524C44.2125 31.4021 37.2229 24.4125 28.4727 23.6992L31.2458 26.4724C36.5187 27.9529 40.6722 32.1064 42.1527 37.3793Z" fill="#D6D6D6"/>
<path d="M45.7718 54C46.2364 53.298 46.6571 52.5667 47.0385 51.8107L45.3544 50.1266C42.1324 57.051 35.127 61.875 27 61.875C15.8344 61.875 6.75 52.7906 6.75 41.625C6.75 33.498 11.574 26.4926 18.4984 23.2717L16.8154 21.5887C9.51862 25.3125 4.5 32.886 4.5 41.625C4.5 54.0315 14.5935 64.125 27 64.125H33.75C40.7419 64.125 46.998 60.9187 51.1279 55.9001L49.2277 54H45.7718ZM42.984 59.625H40.4426C41.769 58.6316 42.9862 57.5055 44.064 56.25H47.718C46.3151 57.5899 44.7244 58.7284 42.984 59.625Z" fill="#D6D6D6"/>
<path d="M56.1993 40.6305C56.1285 39.0116 55.8877 37.4389 55.4906 35.9258C55.2825 35.1315 55.035 34.3552 54.7447 33.5981C54.4533 32.8387 54.1271 32.0974 53.7581 31.3796C50.5732 25.1854 44.6062 20.6674 37.512 19.4659C37.494 19.494 37.4726 19.5187 37.4557 19.548C36.675 19.3939 35.8785 19.2892 35.0707 19.2206C35.0752 19.2116 35.0808 19.2026 35.0853 19.1936C34.641 19.1666 34.2011 19.125 33.75 19.125H32.6283H32.625H30.2355H27C26.0167 19.125 25.0548 19.2105 24.1053 19.3331L26.1888 21.4166C26.46 21.4054 26.7266 21.375 27 21.375C38.1656 21.375 47.25 30.4594 47.25 41.625C47.25 41.8984 47.2196 42.165 47.2083 42.4361L49.2671 44.4949C49.3402 43.9177 49.4133 43.3406 49.4426 42.75H53.9426C53.8571 44.3025 53.6062 45.8089 53.1877 47.25H52.0222L54.6581 49.8859C55.674 47.3242 56.25 44.5433 56.25 41.625C56.25 41.2897 56.214 40.9624 56.1993 40.6305ZM40.4426 23.625H42.984C44.7243 24.5216 46.3151 25.6601 47.7168 27H44.0628C42.9862 25.7445 41.769 24.6184 40.4426 23.625ZM45.7717 29.25H49.743C50.8095 30.6248 51.7185 32.1278 52.4058 33.75H48.0498C47.4525 32.1593 46.6953 30.6473 45.7717 29.25ZM49.4426 40.5C49.3661 38.9531 49.1343 37.4501 48.7597 36H53.1888C53.6062 37.4411 53.8571 38.9475 53.9437 40.5H49.4426Z" fill="#D6D6D6"/>
<path d="M9.51415 7.92337L7.9234 9.51412L62.4859 64.0766L64.0767 62.4859L9.51415 7.92337Z" fill="#D6D6D6"/>
</svg>
