<svg width="80" height="83" viewBox="0 0 80 83" fill="none" xmlns="http://www.w3.org/2000/svg">
<path d="M46.3372 2.69885L46.9584 3.52237C47.3903 4.07179 47.9739 4.84437 48.6956 5.85565L49.7669 7.56313C50.2101 8.22272 50.6132 8.90844 50.9739 9.61654L52.2075 12.0574L53.3502 14.8744C54.1362 17.0079 54.7727 19.1936 55.2552 21.4155C55.8102 23.8888 56.1525 26.4052 56.2785 28.9369L56.3452 29.9056L56.3408 30.9036L56.3237 32.9195C56.3413 33.5996 56.2516 34.2773 56.2059 34.9569L56.0223 37.0281C55.8191 38.3901 55.6017 39.758 55.3449 41.1188L54.8563 43.1428C54.7093 43.8216 54.5264 44.4921 54.3083 45.1515C53.8582 46.4623 53.5077 47.8053 52.9323 49.0615L52.1735 50.9775C51.8725 51.626 51.5715 52.2015 51.2776 52.8106C50.9837 53.4196 50.6943 54.0235 50.3596 54.6062C50.025 55.1889 49.6689 55.7438 49.3284 56.3123L48.827 57.1595L48.7002 57.3677L48.6191 57.4609C48.6822 57.3884 48.6191 57.4609 48.6191 57.4609L48.5559 57.5334L48.2635 57.9525C47.8694 58.5198 47.4908 59.1006 47.114 59.5646C45.6643 61.5116 44.0316 63.3154 42.2383 64.9513C40.6569 66.4274 38.9351 67.7455 37.0973 68.8867C35.564 69.8663 33.9342 70.6862 32.2336 71.3333C32.049 71.4092 31.8644 71.4852 31.685 71.5656L31.1377 71.7444L30.0901 72.0793L28.205 72.5496C27.6271 72.638 27.1021 72.7179 26.6456 72.8028C26.1892 72.8877 25.799 72.8756 25.4761 72.9221L24.4804 73.0198L24.379 73.0317C24.1544 73.0486 23.9439 73.1473 23.7873 73.3091C23.6306 73.4709 23.5387 73.6845 23.529 73.9094C23.5193 74.1344 23.5924 74.3551 23.7345 74.5298C23.8767 74.7044 24.0779 74.8209 24.3001 74.8572L25.3702 75.061C26.392 75.2402 27.4273 75.3318 28.4647 75.3348C29.1286 75.294 29.883 75.2957 30.6889 75.1965L31.9713 75.0207L32.6306 74.9121L33.3104 74.7485C35.3561 74.2497 37.3275 73.4842 39.1737 72.4717C41.3505 71.3011 43.3721 69.8623 45.1911 68.1889C47.2172 66.3234 49.0402 64.2486 50.6296 61.9994C51.0747 61.3945 51.3971 60.8468 51.7757 60.2659L52.0525 59.8332L52.1698 59.6986L52.2296 59.5777L52.3641 59.3397L52.8827 58.3892C53.2147 57.7678 53.5686 57.1108 53.9134 56.4641C54.2583 55.8175 54.4894 55.1446 54.807 54.4561C55.1247 53.7675 55.4152 53.11 55.6696 52.4209C55.9239 51.7319 56.142 51.0112 56.3756 50.3041C56.8392 48.892 57.2294 47.4568 57.5448 46.0044C57.7239 45.2875 57.8641 44.5614 57.9646 43.8294L58.3204 41.6442C58.4872 40.1776 58.6108 38.7189 58.7111 37.2763L58.7628 35.1266C58.7716 34.4058 58.8153 33.6971 58.757 32.9906C58.6987 32.2841 58.6843 31.5794 58.6512 30.8858L58.6038 29.8428L58.475 28.8199C58.2991 27.4645 58.211 26.1128 57.9176 24.819C57.6243 23.5252 57.4879 22.2498 57.132 21.0382C56.5578 18.7249 55.8211 16.4549 54.9275 14.2452L53.7071 11.3606L52.4191 8.83583C52.0433 8.09086 51.6295 7.36564 51.1795 6.663L50.0776 4.79216C49.3681 3.74598 48.7696 2.96956 48.3906 2.41164L47.7927 1.57192C47.7229 1.47286 47.6343 1.38852 47.532 1.3237C47.4296 1.25888 47.3155 1.21486 47.1961 1.19415C47.0768 1.17344 46.9545 1.17645 46.8363 1.20299C46.7181 1.22954 46.6062 1.2791 46.5072 1.34887C46.4081 1.41863 46.3238 1.50721 46.259 1.60957C46.1941 1.71193 46.1501 1.82605 46.1294 1.94542C46.1087 2.06479 46.1117 2.18707 46.1382 2.30529C46.1648 2.42349 46.2144 2.53532 46.2841 2.63437L46.3372 2.69885Z" fill="#70E2CA"/>
</svg>
