<svg width="20" height="20" viewBox="0 0 20 20" fill="none" xmlns="http://www.w3.org/2000/svg">
<path d="M18.2554 8.24774C18.0049 8.28444 17.7485 8.30693 17.4921 8.32943L16.7926 8.34834C16.3085 8.34013 15.8252 8.30513 15.3449 8.2435C14.8716 8.1659 14.403 8.06165 13.9414 7.93124C13.4741 7.80778 13.0139 7.6591 12.5627 7.48587C12.1163 7.31563 11.6816 7.11631 11.2612 6.88919C10.8319 6.6608 10.4386 6.39098 10.046 6.13086C9.66341 5.85044 9.29521 5.55091 8.94281 5.23341C8.58562 4.92219 8.26584 4.58892 7.9661 4.26401C7.73781 4.02238 7.44046 3.85717 7.1147 3.79095C6.78895 3.72473 6.45069 3.76074 6.14617 3.89405C5.84166 4.02737 5.58574 4.25147 5.41343 4.53574C5.24111 4.82001 5.16082 5.15058 5.18349 5.48222L5.22531 6.01954L5.44409 8.70542C5.52476 9.59532 5.60993 10.48 5.719 11.3582C5.7977 12.2538 5.94663 13.1417 6.16442 14.0139C6.29085 14.4559 6.44096 14.8907 6.61412 15.3164C6.71212 15.5384 6.79074 15.7618 6.9198 16.0108C6.95086 16.0379 6.97506 16.1773 6.99228 16.074C7.0602 15.9179 7.15017 15.7724 7.25943 15.6419C7.40164 15.49 7.58933 15.3883 7.79429 15.3521C8.10679 15.2965 7.8808 15.3364 7.95312 15.3266L8.01576 15.3174C8.19814 15.3144 8.37793 15.3609 8.536 15.4519C8.7093 15.5456 8.84508 15.6961 8.92056 15.8781C8.99939 16.0569 9.01151 16.2581 8.9547 16.4451C8.92457 16.5761 8.86546 16.6987 8.78174 16.8038C8.69801 16.9089 8.5918 16.994 8.47089 17.0526C8.35963 17.1147 8.2354 17.1499 8.10811 17.1555C8.01237 17.1638 7.9159 17.1539 7.82383 17.1263C7.7615 17.1119 7.70116 17.0899 7.64414 17.0608L7.5406 16.9706C7.74161 17.0937 7.98194 17.1355 8.21272 17.0877C8.44349 17.0398 8.64737 16.9059 8.78289 16.7131C8.91841 16.5202 8.9754 16.283 8.94225 16.0497C8.90911 15.8164 8.78833 15.6044 8.60447 15.457C8.56755 15.416 8.52584 15.3797 8.48024 15.3487C8.41823 15.3153 8.35276 15.2888 8.285 15.2697C8.18541 15.2473 8.08336 15.238 7.98137 15.2419C7.76362 15.2587 7.55697 15.3448 7.39166 15.4875C7.22634 15.6302 7.11104 15.8221 7.06261 16.0351C6.99729 16.2799 7.01859 16.5397 7.12292 16.7706C7.21722 16.9879 7.38216 17.1669 7.59098 17.2786C7.76 17.3753 7.95143 17.4259 8.14613 17.4254L8.21394 17.4207C8.28109 17.4064 8.06028 17.4507 8.37278 17.3952C8.63612 17.343 8.87476 17.2051 9.05146 17.003C9.23666 16.7855 9.36585 16.526 9.42773 16.2471C9.43586 16.1451 9.46373 16.0457 9.50979 15.9544C9.61005 15.7139 9.68575 15.4702 9.7486 15.2517C9.89201 14.774 9.99513 14.285 10.0569 13.7901C10.19 12.8197 10.1927 11.8358 10.0649 10.8647C9.95743 9.89489 9.77751 8.93448 9.52669 7.99152C9.27258 7.04973 8.96352 6.12364 8.6011 5.21799L5.85127 6.98385C6.34794 7.27089 6.84778 7.53337 7.35597 7.77582L8.12404 8.11719L8.89911 8.41914L9.67286 8.70172L10.4588 8.94939L11.2434 9.1777L12.0312 9.38145C12.556 9.51082 13.0832 9.60595 13.6112 9.71078C14.1391 9.8156 14.6779 9.86614 15.2284 9.94508C15.7788 10.024 16.2963 10.0468 16.8331 10.0683L17.6573 10.0944C17.915 10.0912 18.1689 10.103 18.4273 10.1095C18.549 10.114 18.6704 10.0943 18.7845 10.0518C18.8987 10.0093 19.0034 9.94475 19.0926 9.86179C19.1818 9.77884 19.2537 9.67912 19.3044 9.56834C19.355 9.45757 19.3834 9.3379 19.3878 9.21617C19.3922 9.09444 19.3726 8.97303 19.3301 8.85888C19.2876 8.74473 19.223 8.64007 19.1401 8.55088C19.0571 8.46169 18.9574 8.38971 18.8466 8.33905C18.7358 8.28839 18.6162 8.26004 18.4944 8.25563L18.2554 8.24774Z" fill="#70E2CA"/>
</svg>
