<svg width="26" height="27" viewBox="0 0 26 27" fill="none" xmlns="http://www.w3.org/2000/svg">
<path d="M24.3045 0.0403699L6.90506 0L12.032 5.28845C12.6376 5.85363 13.4046 6.21696 14.2524 6.21696H18.5719C19.0968 6.13622 19.6216 6.49955 19.7023 7.06472C19.7023 7.14546 19.7023 7.2262 19.7023 7.30694V15.7846C19.7023 15.7846 6.29951 1.89738 5.29027 0.928507C4.28102 -0.0403698 2.54512 0.0403699 2.54512 0.0403699H0.00181589V24.7467C0.00181589 24.7467 -0.119294 26.6037 1.61661 26.6037H18.5719L13.3239 21.0327C12.7587 20.5886 12.0724 20.3464 11.3861 20.3464H7.30876C6.1784 20.3464 6.29951 19.0546 6.29951 19.0546V11.2228L19.8638 25.3523C19.8638 25.3523 21.1152 26.5634 22.4071 26.5634H26C26 26.5634 25.8385 3.14885 25.8385 1.65516C25.8385 0.161479 24.3045 0.0403699 24.3045 0.0403699Z" fill="#2A575B"/>
</svg>
