<svg width="16" height="17" viewBox="0 0 16 17" fill="none" xmlns="http://www.w3.org/2000/svg">
<path d="M14.9566 0.024843L4.24927 0L7.40433 3.25443C7.77697 3.60223 8.24899 3.82582 8.77069 3.82582H11.4289C11.7519 3.77613 12.0748 3.99972 12.1245 4.34752C12.1245 4.39721 12.1245 4.44689 12.1245 4.49658V9.71361C12.1245 9.71361 3.87662 1.16762 3.25555 0.571389C2.63447 -0.024843 1.56623 0.024843 1.56623 0.024843H0.00111747V15.2288C0.00111747 15.2288 -0.0734116 16.3715 0.994837 16.3715H11.4289L8.1993 12.9432C7.8515 12.6699 7.42917 12.5209 7.00684 12.5209H4.4977C3.80209 12.5209 3.87662 11.7259 3.87662 11.7259V6.90635L12.2239 15.6014C12.2239 15.6014 12.994 16.3467 13.789 16.3467H16C16 16.3467 15.9006 1.93775 15.9006 1.01856C15.9006 0.0993719 14.9566 0.024843 14.9566 0.024843Z" fill="white"/>
</svg>
