<?xml version="1.0" encoding="UTF-8" standalone="yes"?>
<svg fill="#B8BCCB" viewBox="0 0 16 16" xmlns="http://www.w3.org/2000/svg">
<path d="m8 1c-2.2031 0-4 1.7969-4 4v1h-0.5c-0.82422 0-1.5 0.67578-1.5 1.5v5c0 0.82422 0.67578 1.5 1.5 1.5h9c0.82422 0 1.5-0.67578 1.5-1.5v-5c0-0.82422-0.67578-1.5-1.5-1.5h-0.5v-1c0-2.2031-1.7969-4-4-4zm0 1c1.6641 0 3 1.3359 3 3v1h-6v-1c0-1.6641 1.3359-3 3-3zm-4.5 5h9c0.28125 0 0.5 0.21875 0.5 0.5v5c0 0.28125-0.21875 0.5-0.5 0.5h-9c-0.28125 0-0.5-0.21875-0.5-0.5v-5c0-0.28125 0.21875-0.5 0.5-0.5z"/>
</svg>
