<?xml version="1.0" encoding="utf-8"?>
<!-- Generator: Adobe Illustrator 23.0.2, SVG Export Plug-In . SVG Version: 6.00 Build 0)  -->
<svg version="1.1" id="Layer_1" xmlns="http://www.w3.org/2000/svg" xmlns:xlink="http://www.w3.org/1999/xlink" x="0px" y="0px"
	 viewBox="0 0 414.4 72.3" style="enable-background:new 0 0 414.4 72.3;" xml:space="preserve">
<style type="text/css">
	.st0{fill:#8CD1C5;}
	.st1{fill:#B4E0D9;}
</style>
<title>Neuma_Concept1_</title>
<g>
	<path class="st0" d="M65.4,1.7L22.3,1.6L35,14.7c1.5,1.4,3.4,2.3,5.5,2.3h10.7c1.3-0.2,2.6,0.7,2.8,2.1c0,0.2,0,0.4,0,0.6v21
		c0,0-33.2-34.4-35.7-36.8s-6.8-2.2-6.8-2.2H5.2v61.2c0,0-0.3,4.6,4,4.6h42l-13-13.8c-1.4-1.1-3.1-1.7-4.8-1.7H23.3
		c-2.8,0-2.5-3.2-2.5-3.2V29.4l33.6,35c0,0,3.1,3,6.3,3h8.9c0,0-0.4-58-0.4-61.7S65.4,1.7,65.4,1.7z"/>
	<g id="_9RALH9.tif-14">
		<path class="st1" d="M323.7,32.6l-7.5,9.4c-2.5,3.1-5,6.2-7.5,9.4c-1.2,1.5-2.2,1.4-3.4-0.1c-4.7-5.9-9.5-11.8-14.2-17.6
			c-0.3-0.3-0.7-0.6-1.1-0.9l-0.4,0.2v32.4c0,1.8,0,1.8-1.7,1.8c-3.5,0-6.9,0-10.4,0c-1,0-1.5-0.2-1.5-1.4c0-20.5,0-41.1,0-61.7
			c0-1.5,0.2-1.5,1.7-1.7c2.3-0.3,3.7,0.6,5.2,2.3c7.6,9.2,15.3,18.2,23,27.2c0.3,0.4,0.7,0.7,1.2,1.2c1.7-1.9,3.2-3.8,4.8-5.6
			c6.8-8.1,13.6-16.1,20.4-24.2c0.6-0.7,1.5-1,2.5-0.9c3.1,0,3.1,0,3.1,3.1v59.8c0,1.8,0,1.8-1.8,1.8c-3.5,0-7,0-10.5,0
			c-1.1,0-1.4-0.3-1.4-1.4c0-10.4,0-20.8,0-31.1c0-0.7-0.1-1.3-0.2-2L323.7,32.6z"/>
		<path class="st1" d="M101.3,30.4c0,1-0.1,1.7-0.1,2.3v32.7c0,1.7,0,1.7-1.7,1.7c-3.4,0-6.8,0-10.3,0c-1.1,0-1.5-0.3-1.5-1.5
			c0-20.6,0-41.2,0-61.8c0-1.1,0.3-1.5,1.5-1.6c1.7-0.2,3.4,0.5,4.5,1.9c11,11.3,22.1,22.5,33.2,33.7c0.5,0.4,1,0.8,1.5,1.2
			c0.1-0.9,0.1-1.5,0.1-2c0-10.8,0-21.6,0-32.5c0-1.9,0-1.9,1.9-1.9h10.1c1.5,0,1.6,0.1,1.6,1.6c0,20.5,0,41,0,61.5
			c0,1.1-0.4,1.3-1.4,1.4c-1.8,0.2-3.6-0.6-4.7-2c-11-11.1-22.1-22.4-33.3-33.6C102.3,31.1,101.8,30.8,101.3,30.4z"/>
		<path class="st1" d="M209.6,26.5v-22c0-1.7,0.1-1.8,1.8-1.8h10.1c1.6,0,1.7,0.2,1.7,1.7c0,13.5,0,27,0,40.5
			c-0.2,4.2,2.2,8.1,6,9.7c2.6,1.3,5.4,1.3,8.2,1.1c3.3-0.1,6.3-1.8,8.2-4.4c1.3-1.8,2-4,1.9-6.2c0-13.3,0-26.7,0-40
			c0-0.4,0-0.8,0-1.2c0-0.8,0.3-1.2,1.2-1.2c3.6,0,7.3,0,11,0c1,0,1.4,0.4,1.4,1.5c0,13.8,0,27.7,0,41.5c0.2,6.5-2.8,12.7-7.9,16.7
			c-3.2,2.6-7.1,4.3-11.2,4.8c-2.9,0.5-5.8,0.7-8.7,0.6c-7.7-0.4-14.4-3-19.3-9.3c-2.5-3-3.9-6.8-4-10.7c-0.1-7.1,0-14.2,0-21.4
			L209.6,26.5z"/>
		<path class="st1" d="M403.8,67.1c-1.9,0-3.9,0-5.8,0c-0.7,0.1-1.4-0.3-1.7-1c-1.3-2.8-2.8-5.6-4-8.4c-0.3-0.9-1.2-1.4-2.1-1.3
			c-5.7,0-11.3,0-17,0c-2.4,0-4.8,0.1-7.1,0c-0.9-0.1-1.7,0.4-2.1,1.2c-1.3,2.8-2.6,5.6-3.8,8.4c-0.2,0.7-1,1.2-1.7,1.2
			c-3.9,0-7.8,0-11.7,0c-1.4,0-1.8-0.6-1.2-1.9c1.9-4.2,3.8-8.3,5.8-12.4c1.8-3.8,3.6-7.7,5.4-11.5s3.6-7.7,5.4-11.5
			s3.7-7.8,5.5-11.7l5.4-11.5c0.6-1.2,1.1-2.4,1.7-3.6c0.3-0.4,0.7-0.7,1.2-0.8c1.5-0.1,3.1-0.1,4.6,0c0.5,0,1,0.3,1.2,0.7
			c2,4.2,4,8.6,6,12.8S392,24.6,394,29c1.8,3.8,3.6,7.7,5.4,11.5s3.7,7.7,5.5,11.6s3.6,7.8,5.4,11.7c0.3,0.7,0.6,1.5,0.7,2.2
			c0.2,0.8-0.2,1.2-1.1,1.1C407.9,67.1,405.8,67.1,403.8,67.1z M378.3,23.9l-0.5,0.2c-0.9,2.1-1.8,4.3-2.7,6.4
			c-1.8,4.3-3.7,8.6-5.5,12.9c-0.5,1.3-0.3,1.6,1.1,1.6h15.1h0.5c0.7,0,0.9-0.4,0.7-1c-0.8-1.8-1.5-3.6-2.3-5.4
			c-1.6-3.8-3.2-7.7-4.9-11.5C379.4,26,378.8,25,378.3,23.9z"/>
		<path class="st1" d="M157.2,35V4.9c0-2.1,0.1-2.1,2.1-2.1h35.5c1.8,0,1.9,0,1.9,1.9v8.2c0,1.7,0,1.7-1.6,1.7h-22.2
			c-1.7,0-1.8,0.1-1.8,1.8c0,3.3,0,6.7,0,10c0,1.4,0.2,1.6,1.6,1.6h20.8c1.7,0,1.7,0,1.7,1.7c0,2.9,0,5.9,0,8.8c0,1-0.3,1.4-1.4,1.4
			c-7,0-14,0-21,0c-1.7,0-1.7,0.1-1.7,1.7c0,3.9,0,7.8,0,11.7c0,1.6,0.2,1.8,1.7,1.8h22.9c1.7,0,1.7,0,1.7,1.7c0,3.1,0,6.1,0,9.2
			c0,1.1-0.3,1.4-1.4,1.4c-12.4,0-24.8,0-37.2,0c-1.5,0-1.6-0.1-1.6-1.6C157.2,55.4,157.2,45.2,157.2,35z"/>
	</g>
</g>
</svg>
