<svg xmlns="http://www.w3.org/2000/svg" width="96" height="86" fill="none" viewBox="0 0 96 86">
    <path fill="#D6D6D6" d="M35.379 78.074l-1.56 3.051a40.758 40.758 0 0 0 6.532 2.658l1.046-3.275a39.102 39.102 0 0 1-6.018-2.434zM18.2 61.153l-3.035 1.594a41.28 41.28 0 0 0 2.795 4.577l2.811-1.937a37.59 37.59 0 0 1-2.571-4.234zm6.72 9.257l-2.469 2.383a44.72 44.72 0 0 0 5.366 4.663l2.023-2.794a38.557 38.557 0 0 1-4.92-4.252zM53.141 0a42.572 42.572 0 0 0-26.437 9.155l2.434 2.434A39.307 39.307 0 0 1 53.14 3.43c21.739 0 39.431 17.692 39.431 39.43 0 9.019-3.051 17.35-8.16 24.003l2.434 2.434A42.53 42.53 0 0 0 96 42.86C96 19.218 76.782 0 53.14 0zm0 82.291a39.99 39.99 0 0 1-5.384-.36l-.48 3.377c1.92.275 3.892.412 5.863.412a42.53 42.53 0 0 0 26.436-9.155l-2.434-2.434c-6.652 5.108-14.984 8.16-24.002 8.16zM20.617 36.002h-6.275a39.006 39.006 0 0 1 7.526-17.144l-2.417-2.417a42.487 42.487 0 0 0-8.572 19.561H3.354a3.325 3.325 0 0 0-2.88 1.663 3.545 3.545 0 0 0-.034 3.48l7.217 12.858c.909 1.612 2.52 2.572 4.338 2.572 1.8 0 3.428-.96 4.337-2.572l7.218-12.858c.6-1.08.582-2.4-.035-3.48a3.332 3.332 0 0 0-2.897-1.663zm-7.286 16.321a1.526 1.526 0 0 1-1.337.823c-.258 0-.926-.085-1.338-.823L3.354 39.431l17.195.034-7.217 12.858zM12.778.073l-2.425 2.424 83.149 83.149 2.424-2.424L12.778.073zM39.824 36.848l-6.08 6.102 19.373 19.305 6.08-6.1-2.213-2.207-3.874 3.888-14.946-14.894 3.874-3.888-2.214-2.206z"/>
    <path fill="#D6D6D6" d="M64.212 46.694l3.8-3.812-14.947-14.894-3.799 3.812-2.213-2.206 6.005-6.026L72.43 42.874 66.426 48.9l-2.214-2.206z"/>
</svg>
