<svg xmlns="http://www.w3.org/2000/svg" width="16" height="16" fill="none" viewBox="0 0 16 16">
    <path fill="#31E6C9" d="M1.817 0C.821 0 0 .82 0 1.817v12.115c0 .996.82 1.817 1.817 1.817h12.115c.996 0 1.817-.82 1.817-1.817v-1.817h-1.211v1.817a.598.598 0 0 1-.606.606H1.817a.598.598 0 0 1-.606-.606V1.817c0-.34.265-.606.606-.606h12.115c.341 0 .606.265.606.606v1.817h1.211V1.817C15.75.821 14.93 0 13.932 0H1.817zm9.969 3.66l-.857.857 2.752 2.752H4.846V8.48h8.835l-2.752 2.752.857.857L16 7.875 11.786 3.66z"/>
</svg>
