<svg width="160" height="28" viewBox="0 0 160 28" fill="none" xmlns="http://www.w3.org/2000/svg">
<path d="M25.251 0.65653L8.61003 0.61792L13.5135 5.67584C14.0927 6.21638 14.8263 6.56387 15.6371 6.56387H19.7683C20.2703 6.48665 20.7722 6.83414 20.8494 7.37468C20.8494 7.4519 20.8494 7.52912 20.8494 7.60634V15.7144C20.8494 15.7144 8.03088 2.43259 7.06563 1.50595C6.10038 0.57931 4.44015 0.65653 4.44015 0.65653H2.00772V24.2859C2.00772 24.2859 1.89189 26.0619 3.55212 26.0619H19.7683L14.749 20.7338C14.2085 20.309 13.5521 20.0774 12.8958 20.0774H8.99614C7.91505 20.0774 8.03088 18.8419 8.03088 18.8419V11.3515L21.0039 24.865C21.0039 24.865 22.2008 26.0233 23.4363 26.0233H26.8726C26.8726 26.0233 26.7181 3.6295 26.7181 2.20093C26.7181 0.77236 25.251 0.65653 25.251 0.65653Z" fill="#8CD1C5"/>
<path d="M124.981 12.5868L122.085 16.2161C121.12 17.4131 120.154 18.61 119.189 19.8455C118.726 20.4246 118.34 20.386 117.876 19.8069C116.062 17.5289 114.209 15.2509 112.394 13.0115C112.278 12.8957 112.124 12.7799 111.969 12.664L111.815 12.7412V25.2509C111.815 25.9459 111.815 25.9459 111.158 25.9459C109.807 25.9459 108.494 25.9459 107.143 25.9459C106.757 25.9459 106.564 25.8687 106.564 25.4053C106.564 17.4903 106.564 9.53661 106.564 1.58294C106.564 1.00379 106.641 1.00379 107.22 0.926571C108.108 0.810741 108.649 1.15823 109.228 1.8146C112.162 5.36672 115.135 8.84163 118.108 12.3165C118.224 12.471 118.378 12.5868 118.571 12.7799C119.228 12.0463 119.807 11.3127 120.425 10.6177C123.05 7.49028 125.676 4.40147 128.301 1.27406C128.533 1.00379 128.88 0.887961 129.266 0.926571C130.463 0.926571 130.463 0.926571 130.463 2.12348V25.2123C130.463 25.9073 130.463 25.9073 129.768 25.9073C128.417 25.9073 127.066 25.9073 125.714 25.9073C125.29 25.9073 125.174 25.7914 125.174 25.3667C125.174 21.3513 125.174 17.3358 125.174 13.359C125.174 13.0887 125.135 12.8571 125.097 12.5868H124.981Z" fill="#B4E0D9"/>
<path d="M39.1119 11.7374C39.1119 12.1235 39.0733 12.3938 39.0733 12.6254V25.2509C39.0733 25.9073 39.0733 25.9073 38.4169 25.9073C37.1042 25.9073 35.7915 25.9073 34.4401 25.9073C34.0154 25.9073 33.861 25.7915 33.861 25.3281C33.861 17.3745 33.861 9.4208 33.861 1.46713C33.861 1.04242 33.9768 0.887983 34.4401 0.849373C35.0965 0.772153 35.7529 1.04242 36.1776 1.58296C40.4247 5.9459 44.7104 10.2702 48.9961 14.5945C49.1891 14.749 49.3822 14.9034 49.5752 15.0579C49.6139 14.7104 49.6139 14.4787 49.6139 14.2857C49.6139 10.1158 49.6139 5.9459 49.6139 1.7374C49.6139 1.00381 49.6139 1.00381 50.3474 1.00381H54.2471C54.8262 1.00381 54.8648 1.04242 54.8648 1.62157C54.8648 9.53663 54.8648 17.4517 54.8648 25.3667C54.8648 25.7915 54.7104 25.8687 54.3243 25.9073C53.6293 25.9845 52.9343 25.6756 52.5096 25.1351C48.2625 20.8494 43.9768 16.4864 39.6525 12.1621C39.498 12.0077 39.305 11.8918 39.1119 11.7374Z" fill="#B4E0D9"/>
<path d="M80.9266 10.2317V1.73746C80.9266 1.08109 80.9652 1.04248 81.6216 1.04248H85.5212C86.139 1.04248 86.1776 1.1197 86.1776 1.69885C86.1776 6.91121 86.1776 12.1236 86.1776 17.3359C86.1004 18.9575 87.027 20.4633 88.4942 21.0811C89.4981 21.583 90.5791 21.583 91.6602 21.5058C92.9344 21.4672 94.0927 20.8108 94.8262 19.807C95.3282 19.112 95.5984 18.2626 95.5598 17.4131C95.5598 12.278 95.5598 7.10426 95.5598 1.96912C95.5598 1.81468 95.5598 1.66024 95.5598 1.5058C95.5598 1.19692 95.6757 1.04248 96.0232 1.04248C97.4131 1.04248 98.8417 1.04248 100.27 1.04248C100.656 1.04248 100.811 1.19692 100.811 1.62163C100.811 6.94982 100.811 12.3166 100.811 17.6448C100.888 20.1545 99.7297 22.5483 97.7606 24.0927C96.5251 25.0965 95.0193 25.7529 93.4363 25.946C92.3166 26.139 91.1969 26.2162 90.0772 26.1776C87.1042 26.0232 84.5174 25.0193 82.6255 22.5869C81.6602 21.4286 81.1197 19.9614 81.0811 18.4556C81.0425 15.7143 81.0811 12.973 81.0811 10.1931L80.9266 10.2317Z" fill="#B4E0D9"/>
<path d="M155.907 25.9073C155.174 25.9073 154.402 25.9073 153.668 25.9073C153.398 25.9459 153.127 25.7914 153.012 25.5212C152.51 24.4401 151.93 23.359 151.467 22.2779C151.351 21.9304 151.004 21.7374 150.656 21.776C148.456 21.776 146.293 21.776 144.093 21.776C143.166 21.776 142.239 21.8146 141.351 21.776C141.004 21.7374 140.695 21.9304 140.541 22.2393C140.039 23.3204 139.537 24.4015 139.073 25.4826C138.996 25.7528 138.687 25.9459 138.417 25.9459C136.911 25.9459 135.405 25.9459 133.9 25.9459C133.359 25.9459 133.205 25.7142 133.436 25.2123C134.17 23.5907 134.903 22.0077 135.676 20.4246C136.371 18.9575 137.066 17.4517 137.761 15.9845C138.456 14.5173 139.151 13.0115 139.846 11.5443C140.541 10.0772 141.274 8.53275 141.969 7.02696L144.054 2.58681C144.286 2.12349 144.479 1.66017 144.71 1.19685C144.826 1.04241 144.981 0.926576 145.174 0.887966C145.753 0.849356 146.371 0.849356 146.95 0.887966C147.143 0.887966 147.336 1.0038 147.413 1.15824C148.185 2.77986 148.958 4.4787 149.73 6.10032C150.502 7.72194 151.351 9.498 152.124 11.1968C152.819 12.664 153.513 14.1698 154.208 15.637C154.903 17.1042 155.637 18.61 156.332 20.1158C157.027 21.6216 157.722 23.1273 158.417 24.6331C158.533 24.9034 158.649 25.2123 158.687 25.4826C158.764 25.7914 158.61 25.9459 158.263 25.9073C157.49 25.9073 156.68 25.9073 155.907 25.9073ZM146.062 9.22773L145.869 9.30495C145.521 10.1158 145.174 10.9652 144.826 11.776C144.131 13.4362 143.398 15.0965 142.703 16.7567C142.51 17.2586 142.587 17.3744 143.127 17.3744H148.958H149.151C149.421 17.3744 149.498 17.22 149.421 16.9883C149.112 16.2934 148.842 15.5984 148.533 14.9034C147.915 13.4362 147.297 11.9304 146.641 10.4633C146.486 10.0385 146.255 9.65244 146.062 9.22773Z" fill="#B4E0D9"/>
<path d="M60.6948 13.5135V1.8919C60.6948 1.08109 60.7334 1.08109 61.5056 1.08109H75.2122C75.9072 1.08109 75.9458 1.08109 75.9458 1.81468V4.9807C75.9458 5.63707 75.9458 5.63707 75.328 5.63707H66.7566C66.1002 5.63707 66.0616 5.67568 66.0616 6.33205C66.0616 7.60618 66.0616 8.91892 66.0616 10.1931C66.0616 10.7336 66.1388 10.8108 66.6794 10.8108H74.7103C75.3666 10.8108 75.3666 10.8108 75.3666 11.4672C75.3666 12.5869 75.3666 13.7452 75.3666 14.8649C75.3666 15.251 75.2508 15.4054 74.8261 15.4054C72.1234 15.4054 69.4207 15.4054 66.718 15.4054C66.0616 15.4054 66.0616 15.444 66.0616 16.0618C66.0616 17.5676 66.0616 19.0734 66.0616 20.5792C66.0616 21.1969 66.1388 21.2741 66.718 21.2741H75.5597C76.2161 21.2741 76.2161 21.2741 76.2161 21.9305C76.2161 23.1274 76.2161 24.2857 76.2161 25.4826C76.2161 25.9073 76.1002 26.0232 75.6755 26.0232C70.8879 26.0232 66.1002 26.0232 61.3126 26.0232C60.7334 26.0232 60.6948 25.9846 60.6948 25.4054C60.6948 21.39 60.6948 17.4517 60.6948 13.5135Z" fill="#B4E0D9"/>
</svg>
