<svg xmlns="http://www.w3.org/2000/svg" width="70" height="42" fill="none" viewBox="0 0 70 42">
    <path fill="#D6D6D6" d="M26.833 39.667V26.833h2.334l9.333 7-10.5 7-1.167-1.166z"/>
    <path fill="#D6D6D6" d="M35 0C15.374 0 0 7.687 0 17.5c0 7.978 10.492 14.805 25.667 16.865v5.011a2.605 2.605 0 0 0 2.607 2.607c.487 0 .973-.137 1.4-.408l8.71-5.543a2.596 2.596 0 0 0 1.208-2.199c0-.896-.451-1.718-1.207-2.199l-8.71-5.543a2.605 2.605 0 0 0-2.655-.085 2.604 2.604 0 0 0-1.353 2.285v3.721C12.057 30.091 2.333 24.12 2.333 17.5 2.333 9.278 17.293 2.333 35 2.333c17.708 0 32.667 6.945 32.667 15.167a7.03 7.03 0 0 1-.287 1.974l2.24.656c.252-.864.38-1.748.38-2.63C70 7.687 54.626 0 35 0zm-7 28.29a.26.26 0 0 1 .142-.24.27.27 0 0 1 .133-.036c.045 0 .094.012.146.046l8.71 5.541a.265.265 0 0 1 .128.231.264.264 0 0 1-.127.231l-8.71 5.543a.263.263 0 0 1-.279.01.256.256 0 0 1-.143-.24V28.291zM51.481 30.558l.622 2.25a46.895 46.895 0 0 0 5.173-1.75l-.882-2.16a44.458 44.458 0 0 1-4.913 1.66zM60.984 26.604l1.22 1.989c1.74-1.068 3.221-2.238 4.404-3.48l-1.69-1.61c-1.043 1.097-2.367 2.14-3.934 3.1z"/>
    <path fill="#D6D6D6" d="M44.116 32.056l.316 2.312c.796-.11 1.58-.233 2.35-.368l-.406-2.298c-.74.132-1.494.25-2.26.354z"/>
</svg>
