<svg xmlns="http://www.w3.org/2000/svg" width="15" height="16" fill="none" viewBox="0 0 15 16">
    <path fill="#31E6C9" d="M1.605 0C.725 0 0 .725 0 1.605v10.702c0 .88.725 1.605 1.605 1.605H8.51c.246.306.506.588.77.82a8.1 8.1 0 0 0 1.732 1.161l.23.107.228-.11s.865-.414 1.728-1.18c.863-.765 1.785-1.929 1.785-3.45V9.059c0-.508-.348-.96-.84-1.085h-.002c-.328-.084-.8-.198-1.298-.295V1.605c0-.88-.725-1.605-1.605-1.605H1.605zm0 1.07h9.632c.3 0 .535.234.535.535v2.676H4.28v1.07h7.49v2.176c-.182-.017-.367-.036-.534-.036-.954 0-2.223.31-2.904.483h-.002a1.108 1.108 0 0 0-.706.587H4.28v1.07h3.21v1.629c0 .58.131 1.108.34 1.582H1.606a.528.528 0 0 1-.535-.535V9.63h2.14v-1.07H1.07v-3.21h2.14V4.28H1.07V1.605c0-.301.234-.535.535-.535zm9.632 7.491c.697 0 1.986.283 2.64.45.025.006.035.02.035.048v2.2c0 1.082-.684 1.993-1.426 2.65-.627.557-1.076.768-1.254.86-.178-.09-.622-.293-1.247-.842-.74-.651-1.424-1.556-1.424-2.667V9.059c0-.028.01-.042.036-.048.654-.166 1.943-.45 2.64-.45z"/>
</svg>
