<svg xmlns="http://www.w3.org/2000/svg" width="58" height="68" fill="none" viewBox="0 0 58 68">
    <path fill="#D6D6D6" d="M30.318 15.692c6.553 0 11.864 5.269 11.864 11.77H30.318v-11.77z"/>
    <path fill="#D6D6D6" d="M54.045 49.692c-2.18 0-3.954-1.76-3.954-3.923V27.462c0-9.004-6.152-16.588-14.5-18.886V3.923C35.59 1.76 33.817 0 31.636 0H29c-2.18 0-3.954 1.76-3.954 3.923v4.65c-5.191 1.44-9.67 4.955-12.23 9.783a12.082 12.082 0 0 0-.952-.048C5.32 18.308 0 23.587 0 30.077c0 6.048 4.623 11.04 10.546 11.692v4c0 2.163-1.775 3.923-3.955 3.923s-3.955 1.76-3.955 3.923c0 2.163 1.775 3.923 3.955 3.923h11.941C19.19 63.414 24.222 68 30.318 68c6.097 0 11.128-4.586 11.786-10.462h11.941c2.18 0 3.955-1.76 3.955-3.923 0-2.163-1.774-3.923-3.955-3.923zM27.682 3.923c0-.722.59-1.308 1.318-1.308h2.636c.728 0 1.319.586 1.319 1.308v4.118a20.72 20.72 0 0 0-1.319-.13v-2.68c0-.723-.589-1.308-1.318-1.308-.729 0-1.318.585-1.318 1.308v2.662c-.443.03-.882.077-1.318.136V3.923zM2.636 30.077c0-5.047 4.14-9.154 9.228-9.154 5.087 0 9.227 4.108 9.227 9.154v9.154h-9.227c-5.087 0-9.228-4.108-9.228-9.154zm10.546 15.692v-3.923h10.545v-11.77c0-5.22-3.447-9.652-8.2-11.188 3.051-5.16 8.703-8.427 14.791-8.427 9.449 0 17.137 7.627 17.137 17.002v18.306c0 1.478.515 2.828 1.352 3.923H11.829c.837-1.096 1.353-2.445 1.353-3.923zm17.136 19.616c-4.639 0-8.478-3.419-9.122-7.847h2.664c.613 2.98 3.275 5.231 6.458 5.231 3.184 0 5.845-2.25 6.458-5.23h2.664c-.643 4.427-4.483 7.846-9.122 7.846zm-3.712-7.847h7.423a3.947 3.947 0 0 1-3.712 2.616 3.945 3.945 0 0 1-3.71-2.616zm27.44-2.615H6.59a1.313 1.313 0 0 1-1.318-1.308c0-.721.59-1.307 1.318-1.307h47.454c.728 0 1.319.586 1.319 1.307 0 .722-.59 1.308-1.319 1.308z"/>
    <path fill="#D6D6D6" d="M17.136 30.077c0-2.885-2.364-5.23-5.272-5.23-2.908 0-5.273 2.345-5.273 5.23 0 2.885 2.365 5.23 5.272 5.23 2.909 0 5.273-2.345 5.273-5.23zm-7.909 0c0-1.443 1.183-2.616 2.636-2.616 1.455 0 2.637 1.174 2.637 2.616 0 1.442-1.182 2.615-2.636 2.615-1.454 0-2.637-1.173-2.637-2.615zM42.182 44.462H30.318v2.615h11.864v-2.615zM42.182 39.23h-9.227v2.616h9.227v-2.615zM42.182 34H35.59v2.615h6.59V34z"/>
</svg>
